<svg width="29" height="31" viewBox="0 0 29 31" fill="none" xmlns="http://www.w3.org/2000/svg">
<path d="M28.1223 20.4323C26.907 18.3419 26.2615 15.3413 26.2615 11.7612C26.2615 8.64193 25.0224 5.65042 22.8168 3.44477C20.6111 1.23912 17.6196 0 14.5004 0C11.3811 0 8.38959 1.23912 6.18394 3.44477C3.97829 5.65042 2.73917 8.64193 2.73917 11.7612C2.73917 15.3427 2.09651 18.3419 0.881184 20.4323C0.633193 20.8586 0.501737 21.3427 0.500017 21.836C0.498297 22.3292 0.626372 22.8143 0.871383 23.2423C1.11484 23.6707 1.46821 24.0263 1.89501 24.2724C2.3218 24.5185 2.80656 24.6463 3.29923 24.6425H8.36494C8.50387 26.1737 9.21036 27.5977 10.3456 28.6346C11.4809 29.6715 12.9628 30.2464 14.5004 30.2464C16.0379 30.2464 17.5198 29.6715 18.6551 28.6346C19.7904 27.5977 20.4968 26.1737 20.6358 24.6425H25.7015C26.1934 24.6455 26.6773 24.5174 27.1033 24.2713C27.5293 24.0252 27.882 23.67 28.1251 23.2423C28.3712 22.8149 28.5005 22.3302 28.5 21.8369C28.4995 21.3437 28.3693 20.8592 28.1223 20.4323ZM14.5004 26.8827C13.8548 26.8828 13.229 26.6599 12.729 26.2517C12.2289 25.8435 11.8852 25.275 11.7561 24.6425H17.2446C17.1155 25.275 16.7718 25.8435 16.2718 26.2517C15.7717 26.6599 15.1459 26.8828 14.5004 26.8827ZM4.23172 21.2822C5.47085 18.7619 6.09951 15.5612 6.09951 11.7612C6.09951 9.53314 6.9846 7.39636 8.56006 5.82089C10.1355 4.24543 12.2723 3.36034 14.5004 3.36034C16.7284 3.36034 18.8652 4.24543 20.4407 5.82089C22.0161 7.39636 22.9012 9.53314 22.9012 11.7612C22.9012 15.5598 23.5285 18.7619 24.7676 21.2822H4.23172Z" fill="black"/>
</svg>
