<svg width="11" height="19" viewBox="0 0 11 19" fill="none" xmlns="http://www.w3.org/2000/svg">
<path d="M2.14959 0.37495L10.5746 8.77495C10.6746 8.87495 10.7456 8.98328 10.7876 9.09995C10.8296 9.21662 10.8503 9.34162 10.8496 9.47495C10.8496 9.60828 10.8289 9.73328 10.7876 9.84995C10.7463 9.96662 10.6753 10.075 10.5746 10.175L2.14959 18.6C1.91626 18.8333 1.62459 18.95 1.27459 18.95C0.924594 18.95 0.624595 18.825 0.374595 18.575C0.124595 18.325 -0.000405312 18.0333 -0.000405312 17.7C-0.000405312 17.3666 0.124595 17.075 0.374595 16.825L7.72459 9.47495L0.374595 2.12495C0.141261 1.89162 0.0245943 1.60395 0.0245943 1.26195C0.0245943 0.919951 0.149594 0.624284 0.399594 0.37495C0.649594 0.12495 0.941261 -4.95911e-05 1.27459 -4.95911e-05C1.60793 -4.95911e-05 1.89959 0.12495 2.14959 0.37495Z" fill="black"/>
</svg>
