<svg width="20" height="27" viewBox="0 0 20 27" fill="none" xmlns="http://www.w3.org/2000/svg">
<path d="M0 26.6667V2.5C0 1.11927 1.11927 0 2.5 0H17.5C18.8807 0 20 1.11927 20 2.5V26.6667L10 20.8333L0 26.6667Z" fill="#699BF7"/>
<path d="M17.5 0H2.5C1.11927 0 0 1.11927 0 2.5V26.6667L10 20.8333L20 26.6667V2.5C20 1.11927 18.8807 0 17.5 0ZM17.5 22.3141L10 17.9391L2.5 22.3141V2.8125C2.5 2.72962 2.53292 2.65013 2.59153 2.59153C2.65013 2.53292 2.72962 2.5 2.8125 2.5H17.1875C17.3601 2.5 17.5 2.63974 17.5 2.81229V22.3141Z" fill="white"/>
</svg>
