  <svg
    width="25"
    height="21"
    viewBox="0 0 25 21"
    fill="none"
    xmlns="http://www.w3.org/2000/svg"
  >
    <path
      d="M1.13636 1.44318L2.59091 0L21.5909 19L20.1477 20.4545L16.6477 16.9545C15.3409 17.3864 13.9545 17.6136 12.5 17.6136C6.81818 17.6136 1.96591 14.0795 0 9.09091C0.784091 7.09091 2.03409 5.32955 3.625 3.93182L1.13636 1.44318ZM12.5 5.68182C13.4041 5.68182 14.2713 6.04099 14.9106 6.68032C15.5499 7.31965 15.9091 8.18676 15.9091 9.09091C15.9097 9.47792 15.8443 9.8622 15.7159 10.2273L11.3636 5.875C11.7287 5.74657 12.113 5.68124 12.5 5.68182ZM12.5 0.568182C18.1818 0.568182 23.0341 4.10227 25 9.09091C24.0726 11.4468 22.4965 13.4917 20.4545 14.9886L18.8409 13.3636C20.4124 12.2766 21.6798 10.8057 22.5227 9.09091C21.604 7.21584 20.1778 5.6361 18.406 4.53126C16.6342 3.42641 14.588 2.84077 12.5 2.84091C11.2614 2.84091 10.0455 3.04545 8.90909 3.40909L7.15909 1.67045C8.79545 0.965909 10.6023 0.568182 12.5 0.568182ZM2.47727 9.09091C3.39595 10.966 4.82224 12.5457 6.59401 13.6506C8.36578 14.7554 10.412 15.341 12.5 15.3409C13.2841 15.3409 14.0568 15.2614 14.7727 15.1023L12.1818 12.5C11.3911 12.4152 10.6532 12.0624 10.0909 11.5C9.52855 10.9377 9.17566 10.1998 9.09091 9.40909L5.22727 5.53409C4.10227 6.5 3.15909 7.70455 2.47727 9.09091Z"
      fill="#656B80"
    />
  </svg>