<svg
  width="25"
  height="18"
  viewBox="0 0 25 18"
  fill="none"
  xmlns="http://www.w3.org/2000/svg"
>
  <path
    d="M12.5 5.11364C13.4041 5.11364 14.2713 5.47281 14.9106 6.11214C15.5499 6.75146 15.9091 7.61858 15.9091 8.52273C15.9091 9.42688 15.5499 10.294 14.9106 10.9333C14.2713 11.5726 13.4041 11.9318 12.5 11.9318C11.5959 11.9318 10.7287 11.5726 10.0894 10.9333C9.45008 10.294 9.09091 9.42688 9.09091 8.52273C9.09091 7.61858 9.45008 6.75146 10.0894 6.11214C10.7287 5.47281 11.5959 5.11364 12.5 5.11364ZM12.5 0C18.1818 0 23.0341 3.53409 25 8.52273C23.0341 13.5114 18.1818 17.0455 12.5 17.0455C6.81818 17.0455 1.96591 13.5114 0 8.52273C1.96591 3.53409 6.81818 0 12.5 0ZM2.47727 8.52273C3.39574 10.3981 4.82194 11.9781 6.59373 13.0832C8.36551 14.1884 10.4118 14.7742 12.5 14.7742C14.5882 14.7742 16.6345 14.1884 18.4063 13.0832C20.1781 11.9781 21.6043 10.3981 22.5227 8.52273C21.6043 6.64738 20.1781 5.06733 18.4063 3.96221C16.6345 2.85709 14.5882 2.27123 12.5 2.27123C10.4118 2.27123 8.36551 2.85709 6.59373 3.96221C4.82194 5.06733 3.39574 6.64738 2.47727 8.52273Z"
    fill="#656B80"
  />
</svg>
