<svg width="26" height="26" viewBox="0 0 26 26" fill="none" xmlns="http://www.w3.org/2000/svg">
<path d="M6.27704 15.4275L12.4829 9.20318C12.5567 9.1293 12.6368 9.07685 12.723 9.04582C12.8091 9.01479 12.9015 8.99952 13 9.00001C13.0985 9.00001 13.1909 9.01528 13.277 9.04582C13.3632 9.07635 13.4433 9.12881 13.5172 9.20318L19.7414 15.4275C19.9138 15.5998 20 15.8153 20 16.0739C20 16.3325 19.9077 16.5541 19.723 16.7388C19.5383 16.9235 19.3228 17.0158 19.0765 17.0158C18.8303 17.0158 18.6148 16.9235 18.4301 16.7388L13 11.3087L7.56992 16.7388C7.39754 16.9112 7.18501 16.9974 6.93235 16.9974C6.67968 16.9974 6.46125 16.905 6.27704 16.7203C6.09235 16.5356 6 16.3202 6 16.0739C6 15.8276 6.09235 15.6121 6.27704 15.4275Z" fill="#999999"/>
<circle cx="13" cy="13" r="12.5" stroke="#999999"/>
</svg>
