<svg width="20" height="20" viewBox="0 0 20 20" fill="none" xmlns="http://www.w3.org/2000/svg">
<path d="M18 6.31579H12.388L13.511 2.77158C13.713 2.13158 13.611 1.42211 13.236 0.874737C12.861 0.327369 12.253 0 11.612 0H10C9.703 0 9.422 0.138947 9.231 0.378947L4.531 6.31579H2C0.897 6.31579 0 7.26 0 8.42105V17.8947C0 19.0558 0.897 20 2 20H15.307C15.7139 19.9986 16.1108 19.8672 16.4452 19.6232C16.7796 19.3793 17.0359 19.0342 17.18 18.6337L19.937 10.8958C19.9789 10.7776 20.0002 10.6525 20 10.5263V8.42105C20 7.26 19.103 6.31579 18 6.31579ZM2 8.42105H4V17.8947H2V8.42105ZM18 10.3358L15.307 17.8947H6V7.74947L10.468 2.10526H11.614L10.052 7.03474C10.0013 7.19296 9.98715 7.36164 10.0107 7.52677C10.0343 7.6919 10.095 7.84873 10.1877 7.98425C10.2803 8.11978 10.4024 8.2301 10.5436 8.30606C10.6849 8.38203 10.8414 8.42145 11 8.42105H18V10.3358Z" fill="#999999"/>
</svg>
