<svg width="16" height="14" viewBox="0 0 16 14" fill="none" xmlns="http://www.w3.org/2000/svg">
<path d="M6.02177 10.325C5.87392 10.1565 5.8 9.96541 5.8 9.75178C5.8 9.53815 5.87392 9.35978 6.02177 9.21667L7.51367 7.77778H1.72752C1.49903 7.77778 1.30737 7.70311 1.15253 7.55378C0.997695 7.40445 0.920547 7.21985 0.921084 7C0.921084 6.77963 0.998502 6.59478 1.15334 6.44545C1.30817 6.29611 1.49957 6.2217 1.72752 6.22222H7.51367L6.02177 4.78333C5.86048 4.62778 5.77984 4.44293 5.77984 4.22878C5.77984 4.01463 5.86048 3.83004 6.02177 3.675C6.16962 3.51945 6.35456 3.44167 6.57659 3.44167C6.79863 3.44167 6.98331 3.51296 7.13061 3.65556L10.0338 6.45556C10.1144 6.53333 10.1717 6.61759 10.2055 6.70833C10.2394 6.79908 10.2561 6.8963 10.2555 7C10.2555 7.1037 10.2389 7.20093 10.2055 7.29167C10.1722 7.38241 10.115 7.46667 10.0338 7.54445L7.13061 10.3444C6.96933 10.5 6.78116 10.5713 6.56611 10.5583C6.35106 10.5454 6.16962 10.4676 6.02177 10.325ZM8.98541 14C8.75692 14 8.56553 13.9256 8.41123 13.7768C8.25693 13.628 8.17951 13.4431 8.17898 13.2222C8.17898 13.0019 8.25639 12.817 8.41123 12.6677C8.56606 12.5183 8.75746 12.4439 8.98541 12.4444H13.824V1.55556H8.98541C8.75692 1.55556 8.56526 1.48089 8.41042 1.33156C8.25559 1.18222 8.17844 0.997632 8.17898 0.77778C8.17898 0.55741 8.25639 0.372558 8.41123 0.223225C8.56606 0.0738915 8.75746 -0.000515827 8.98541 2.69127e-06H13.824C14.2675 2.69127e-06 14.6474 0.152447 14.9635 0.457336C15.2796 0.762225 15.4374 1.1283 15.4369 1.55556V12.4444C15.4369 12.8722 15.2788 13.2386 14.9627 13.5434C14.6466 13.8483 14.267 14.0005 13.824 14H8.98541Z" fill="black"/>
</svg>
