<svg width="23" height="22" viewBox="0 0 23 22" fill="none" xmlns="http://www.w3.org/2000/svg">
<path d="M11.3632 1C5.63669 1 0.994751 5.477 0.994751 11C0.994751 16.523 5.63669 21 11.3632 21C17.0897 21 21.7316 16.523 21.7316 11C21.7316 5.477 17.0897 1 11.3632 1Z" stroke="black" stroke-width="1.5" stroke-linecap="round" stroke-linejoin="round"/>
<path d="M3.34937 17.346C3.34937 17.346 5.66049 14.5 11.3631 14.5C17.0657 14.5 19.3779 17.346 19.3779 17.346M11.3631 11C12.1881 11 12.9793 10.6839 13.5626 10.1213C14.1459 9.55871 14.4736 8.79565 14.4736 8C14.4736 7.20435 14.1459 6.44129 13.5626 5.87868C12.9793 5.31607 12.1881 5 11.3631 5C10.5382 5 9.74698 5.31607 9.16364 5.87868C8.58031 6.44129 8.25259 7.20435 8.25259 8C8.25259 8.79565 8.58031 9.55871 9.16364 10.1213C9.74698 10.6839 10.5382 11 11.3631 11Z" stroke="black" stroke-width="1.5" stroke-linecap="round" stroke-linejoin="round"/>
</svg>
