<svg width="22" height="22" viewBox="0 0 22 22" fill="none" xmlns="http://www.w3.org/2000/svg">
<path d="M19.5715 9.33333C19.8739 9.33333 20.1547 9.38542 20.4139 9.48958C20.6731 9.59375 20.9036 9.73611 21.1052 9.91667C21.3068 10.0972 21.458 10.316 21.5588 10.5729C21.6596 10.8299 21.7172 11.1042 21.7316 11.3958C21.7316 11.6667 21.6776 11.9306 21.5696 12.1875C21.4616 12.4444 21.3068 12.6701 21.1052 12.8646L13.5571 20.1444C13.4289 20.2681 13.2699 20.3553 13.0967 20.397L10.9082 20.9232C10.1746 21.0997 9.51734 20.4311 9.70618 19.7007L10.2339 17.6592C10.2802 17.4802 10.3752 17.3175 10.5084 17.1892L18.0486 9.92708C18.2575 9.7257 18.4915 9.57639 18.7507 9.47917C19.0099 9.38194 19.2835 9.33333 19.5715 9.33333ZM20.3491 11.3958C20.3491 11.1736 20.2771 10.9965 20.1331 10.8646C19.9891 10.7326 19.8019 10.6667 19.5715 10.6667C19.4707 10.6667 19.3735 10.6806 19.2799 10.7083C19.1863 10.7361 19.1035 10.7882 19.0315 10.8646L11.708 17.9278C11.6096 18.0227 11.5393 18.1429 11.5048 18.2751V18.2751C11.3627 18.8194 11.853 19.3182 12.3996 19.1854L12.4456 19.1743C12.5784 19.142 12.7003 19.075 12.7988 18.9802L20.1223 11.9271C20.2735 11.7813 20.3491 11.6042 20.3491 11.3958ZM3.37721 1.33333C2.82492 1.33333 2.37721 1.78105 2.37721 2.33333V19C2.37721 19.5523 2.82492 20 3.37721 20H6.98746C7.42146 20 7.73975 20.4081 7.63405 20.829V20.829C7.55961 21.1255 7.29311 21.3333 6.98746 21.3333H1.99475C1.44247 21.3333 0.994751 20.8856 0.994751 20.3333V1C0.994751 0.447717 1.44247 0 1.99475 0H12.6336C12.8925 0 13.1414 0.100454 13.3278 0.280221L18.6609 5.42382C18.8563 5.61229 18.9667 5.87211 18.9667 6.1436V6.98789C18.9667 7.40598 18.6506 7.74306 18.2539 7.875V7.875V7.875C17.9446 7.97786 17.5842 7.77882 17.5842 7.45289V7.21608C17.5842 6.91265 17.3382 6.66667 17.0348 6.66667H13.0544C12.5021 6.66667 12.0544 6.21895 12.0544 5.66667V2.33333C12.0544 1.78105 11.6067 1.33333 11.0544 1.33333H3.37721ZM14.9787 3.76826C14.4008 3.21092 13.4369 3.62044 13.4369 4.42329V4.42329C13.4369 4.92589 13.8443 5.33333 14.3469 5.33333V5.33333C15.1656 5.33333 15.568 4.33662 14.9787 3.76826V3.76826ZM14.1526 9.33333C14.5208 9.33333 14.8193 9.63181 14.8193 10V10C14.8193 10.3682 14.5208 10.6667 14.1526 10.6667H5.80879C5.4406 10.6667 5.14212 10.3682 5.14212 10V10C5.14212 9.63181 5.4406 9.33333 5.80879 9.33333H14.1526ZM5.80878 16C5.4406 16 5.14212 15.7015 5.14212 15.3333V15.3333C5.14212 14.9651 5.4406 14.6667 5.80879 14.6667H9.03118C9.63095 14.6667 9.92568 15.3968 9.49398 15.8132V15.8132C9.36972 15.933 9.20382 16 9.03118 16H5.80878ZM11.7961 12C12.3959 12 12.6906 12.7302 12.2589 13.1465V13.1465C12.1346 13.2664 11.9687 13.3333 11.7961 13.3333H5.80879C5.4406 13.3333 5.14212 13.0349 5.14212 12.6667V12.6667C5.14212 12.2985 5.4406 12 5.80879 12H11.7961Z" fill="black"/>
</svg>
