<svg width="150" height="19" viewBox="0 0 150 19" fill="none" xmlns="http://www.w3.org/2000/svg">
<path d="M14.113 15.5166C13.349 13.8437 12.6435 12.3026 11.7104 10.2641C10.6281 12.6141 9.70188 14.5573 8.83834 16.5284C8.39271 17.5456 8.00111 18.5168 6.63709 18.4826C5.25293 18.4478 4.92715 17.4254 4.58065 16.3843C3.14801 12.0802 1.73274 7.76993 0.260811 3.47943C-0.188162 2.17066 -0.170245 1.00651 1.22722 0.476191C2.74024 -0.0980296 3.53061 0.824921 3.98089 2.22174C4.94246 5.20466 5.95443 8.17104 7.04666 11.4468C8.39579 9.59614 8.82459 7.67732 9.68266 5.97775C10.1618 5.0287 10.4733 3.86244 11.8115 3.87743C13.2326 3.89339 13.5691 5.09437 13.9936 6.14834C14.693 7.88458 15.3876 9.62276 16.2753 11.8366C17.4309 8.35532 18.4713 5.34592 19.42 2.30745C19.8589 0.902107 20.5813 -0.0562854 22.1154 0.487704C23.6763 1.04119 23.5359 2.32837 23.0902 3.64768C21.7588 7.58887 20.4876 11.5512 19.1155 15.4778C18.6851 16.7095 18.6314 18.401 16.7442 18.4552C14.8745 18.5089 14.7606 16.8369 14.113 15.5166Z" fill="url(#paint0_linear_338_667)"/>
<path d="M24.0886 10.2597C24.1245 2.98103 29.438 -1.48069 35.5585 0.450853C39.3888 1.65966 41.9189 5.50417 41.7367 9.83876C41.5422 14.4685 38.9894 17.6713 34.6917 18.6776C30.9621 19.5508 27.1001 17.7901 25.3078 14.3857C24.6552 13.1462 24.3522 11.7925 24.0886 10.2597ZM34.0443 3.96347C32.2018 3.33141 30.641 3.98471 29.5157 5.36103C27.9464 7.28046 27.5956 9.50483 28.4993 11.9152C29.1869 13.7494 30.4716 14.8541 32.3124 15.1414C34.1368 15.4262 35.5967 14.5202 36.6792 13.0901C38.9355 10.1095 37.7889 5.80485 34.0443 3.96347Z" fill="url(#paint1_linear_338_667)"/>
<path d="M57.0494 2.28665C58.778 4.81268 58.8394 7.21119 57.022 9.55806C56.5375 10.1838 56.4371 10.6794 56.9542 11.3905C58.1106 12.9807 57.5362 15.2257 58.9117 16.8029C59.2865 17.2327 58.8971 17.9623 58.3417 18.2225C57.3738 18.676 56.3694 18.6483 55.536 17.8996C54.5952 17.0542 54.2336 15.8911 54.1776 14.6732C54.1261 13.5533 53.8239 12.6932 52.6651 12.355C51.1996 11.9273 49.7133 11.8178 48.2604 12.3258C47.8081 12.4839 47.9021 13.0841 47.8925 13.5194C47.8702 14.5284 47.9119 15.5415 47.8355 16.5459C47.7505 17.6617 47.2887 18.4859 45.9844 18.4618C44.6543 18.4373 44.0295 17.6813 44.0163 16.4322C43.9777 12.7731 43.984 9.11345 43.9831 5.45399C43.9818 0.398472 43.9858 0.398263 49.0315 0.392078C50.221 0.390642 51.412 0.429351 52.5997 0.381839C54.336 0.312413 55.7932 0.868402 57.0494 2.28665ZM47.8766 6.74656C47.646 8.42778 48.4442 9.078 50.0287 8.88858C51.4333 8.72068 53.1228 9.51764 54.0769 7.76514C54.6643 6.68624 54.7743 5.50975 53.864 4.61052C52.4225 3.18655 50.5664 3.74031 48.8839 3.9498C47.4074 4.13364 48.0296 5.49997 47.8766 6.74656Z" fill="url(#paint2_linear_338_667)"/>
<path d="M64.8309 17.0199C64.4252 18.2856 63.6028 18.6005 62.5633 18.3941C61.4719 18.1775 61.2905 17.3018 61.2899 16.3638C61.2872 11.7531 61.2879 7.14229 61.2995 2.53159C61.3027 1.27882 61.8453 0.426822 63.1875 0.451655C64.5696 0.477183 64.9496 1.42346 64.9436 2.64404C64.9355 4.27767 64.9416 5.91133 64.9416 7.76916C66.0577 7.42824 66.6206 6.66668 67.2572 6.04486C68.8321 4.50664 70.3637 2.92339 71.9389 1.38552C72.8142 0.531019 73.8437 -0.43847 74.9854 0.780069C76.1464 2.01929 75.2399 3.09615 74.2847 4.0179C73.1987 5.06601 72.1281 6.13323 70.9972 7.13038C70.1107 7.91209 70.0678 8.615 70.8008 9.55138C72.2362 11.3853 73.589 13.2849 74.9735 15.1592C75.7354 16.1907 76.03 17.3011 74.8302 18.1295C73.7406 18.8816 72.6818 18.5308 71.8759 17.4751C70.3168 15.4325 68.755 13.3919 67.1593 11.3045C65.5957 12.0662 64.8024 13.0989 64.9278 14.7756C64.9792 15.4635 64.8902 16.1623 64.8309 17.0199Z" fill="url(#paint3_linear_338_667)"/>
<path d="M83.6974 7.64685C84.8148 7.92775 85.7987 8.13383 86.7464 8.4499C88.9189 9.17432 89.9393 10.8486 90.0538 13.0343C90.1653 15.1652 89.1859 16.786 87.3234 17.8533C84.5732 19.4292 80.0878 19.1152 77.7151 17.1497C76.7824 16.377 76.0361 15.5002 76.9428 14.2599C77.7833 13.1101 78.7813 13.4454 79.7385 14.1272C81.323 15.256 83.031 15.6411 84.888 14.9708C85.6191 14.7069 86.2635 14.2256 86.3142 13.3717C86.3669 12.4831 85.6996 12.0233 84.991 11.7171C83.9539 11.2692 82.8627 11.0138 81.7395 10.8415C78.8096 10.392 76.9918 8.52864 76.8619 5.93535C76.7178 3.05791 78.3426 1.04035 81.3821 0.310808C83.8996 -0.293458 86.2336 0.172673 88.3893 1.56539C89.3824 2.20705 89.9668 3.11434 89.3312 4.28615C88.6436 5.55412 87.6369 5.26291 86.5992 4.67343C85.4434 4.01681 84.2254 3.5302 82.8485 3.66669C81.7975 3.77086 80.7568 4.03893 80.5242 5.20753C80.2676 6.49679 81.3007 6.91948 82.2859 7.2548C82.7002 7.39579 83.1265 7.50068 83.6974 7.64685Z" fill="url(#paint4_linear_338_667)"/>
<path d="M146.114 0.395508C146.988 0.404658 147.68 0.381447 148.367 0.430673C149.392 0.50413 150 1.05792 149.998 2.12716C149.996 3.11979 149.416 3.64914 148.472 3.6985C146.846 3.78354 145.206 3.94005 143.591 3.81674C142.15 3.7067 141.716 4.18094 141.713 5.59083C141.709 6.9806 141.979 7.7763 143.58 7.61313C144.635 7.50557 145.711 7.58591 146.777 7.61867C147.866 7.65216 148.831 7.95021 148.862 9.28052C148.894 10.6674 147.924 10.8975 146.817 10.8919C145.939 10.8875 145.06 10.8862 144.182 10.8901C141.959 10.8998 141.028 12.3121 141.789 14.4578C142.041 15.1685 142.586 15.1727 143.154 15.1769C144.785 15.189 146.417 15.1682 148.047 15.1996C149.183 15.2215 150.048 15.6615 149.998 16.9765C149.951 18.2242 149.07 18.4837 148.025 18.4811C145.453 18.4748 142.879 18.4266 140.308 18.496C138.547 18.5436 137.909 17.572 137.952 16.0362C138.08 11.5535 137.703 7.06923 138.066 2.5856C138.186 1.09714 138.809 0.388581 140.284 0.399261C142.166 0.412881 144.048 0.398079 146.114 0.395508Z" fill="url(#paint5_linear_338_667)"/>
<path d="M112.994 14.6777C112.128 14.6804 111.436 14.7268 110.752 14.6748C109.714 14.5962 109.1 15.0496 108.782 16.0243C108.627 16.5016 108.431 16.9747 108.187 17.4119C107.695 18.2946 107.031 18.9853 105.921 18.5514C104.766 18.1001 104.763 17.0745 105.132 16.1617C107.113 11.2564 109.097 6.34986 111.218 1.50511C111.983 -0.243268 113.877 -0.23333 114.655 1.53439C116.81 6.43094 118.816 11.3942 120.841 16.3481C121.233 17.3083 120.823 18.0975 119.89 18.5157C119.007 18.9113 118.314 18.5414 117.778 17.8034C117.668 17.6517 117.544 17.4886 117.501 17.3124C116.938 14.9569 115.378 14.2821 112.994 14.6777ZM112.824 11.1062C113.36 11.0398 113.957 11.2765 114.494 10.7112C114.23 9.4081 113.71 8.17445 112.971 6.96696C111.986 8.17336 111.447 9.44514 111.278 10.8743C111.658 11.1795 112.112 11.0747 112.824 11.1062Z" fill="url(#paint6_linear_338_667)"/>
<path d="M105.177 5.88807C104.88 10.274 102.723 12.3351 98.5678 12.3749C95.798 12.4014 95.8425 12.4025 95.7793 15.157C95.7486 16.4922 96.3611 18.4414 94.0656 18.4088C91.8925 18.3778 92.2973 16.4909 92.281 15.115C92.2339 11.1376 92.2361 7.15892 92.28 3.18142C92.305 0.916667 92.8513 0.427439 95.0917 0.401541C96.2193 0.388499 97.3472 0.393294 98.4749 0.394105C102.642 0.39707 104.177 1.62186 105.177 5.88807ZM100.197 4.06415C99.4975 3.72786 98.7474 3.62357 98.0057 3.77549C97.3098 3.91798 96.2494 3.44078 95.9814 4.30519C95.5953 5.55016 95.5068 6.98576 95.9779 8.19505C96.3965 9.26971 97.637 8.65989 98.5129 8.76793C99.7202 8.91688 100.711 8.61149 101.275 7.36184C101.87 6.04249 101.435 5.06156 100.197 4.06415Z" fill="url(#paint7_linear_338_667)"/>
<path d="M135.842 15.5285C136.298 16.874 135.691 17.5789 134.693 18.0833C130.753 20.0748 124.949 18.3881 122.761 14.6153C120.317 10.4022 121.56 4.24257 125.428 1.74515C128.255 -0.0802972 131.3 -0.3132 134.414 0.916666C135.448 1.32484 136.346 2.02871 135.9 3.36764C135.484 4.61657 134.427 4.55509 133.392 4.39745C132.528 4.26601 131.671 4.01328 130.806 3.98365C128.608 3.90834 126.81 4.76601 125.972 6.87637C125.098 9.07767 125.01 11.4249 126.592 13.3416C128.067 15.1287 130.116 15.6477 132.384 14.9386C132.684 14.8451 132.979 14.7396 133.279 14.6478C134.271 14.3438 135.139 14.4648 135.842 15.5285Z" fill="url(#paint8_linear_338_667)"/>
<defs>
<linearGradient id="paint0_linear_338_667" x1="11.6948" y1="0.302979" x2="11.6948" y2="18.4834" gradientUnits="userSpaceOnUse">
<stop stop-color="#4EA5E0"/>
<stop offset="0.640625" stop-color="#4380C4"/>
<stop offset="1" stop-color="#2C3A92"/>
</linearGradient>
<linearGradient id="paint1_linear_338_667" x1="32.9173" y1="0" x2="32.9173" y2="18.8994" gradientUnits="userSpaceOnUse">
<stop stop-color="#4EA5E0"/>
<stop offset="0.640625" stop-color="#4380C4"/>
<stop offset="1" stop-color="#2C3A92"/>
</linearGradient>
<linearGradient id="paint2_linear_338_667" x1="51.5215" y1="0.376099" x2="51.5215" y2="18.5215" gradientUnits="userSpaceOnUse">
<stop stop-color="#4EA5E0"/>
<stop offset="0.640625" stop-color="#4380C4"/>
<stop offset="1" stop-color="#2C3A92"/>
</linearGradient>
<linearGradient id="paint3_linear_338_667" x1="68.4636" y1="0.205444" x2="68.4636" y2="18.5316" gradientUnits="userSpaceOnUse">
<stop stop-color="#4EA5E0"/>
<stop offset="0.640625" stop-color="#4380C4"/>
<stop offset="1" stop-color="#2C3A92"/>
</linearGradient>
<linearGradient id="paint4_linear_338_667" x1="83.2972" y1="0.0516357" x2="83.2972" y2="18.8568" gradientUnits="userSpaceOnUse">
<stop stop-color="#4EA5E0"/>
<stop offset="0.640625" stop-color="#4380C4"/>
<stop offset="1" stop-color="#2C3A92"/>
</linearGradient>
<linearGradient id="paint5_linear_338_667" x1="143.952" y1="0.395508" x2="143.952" y2="18.4977" gradientUnits="userSpaceOnUse">
<stop stop-color="#4EA5E0"/>
<stop offset="0.640625" stop-color="#4380C4"/>
<stop offset="1" stop-color="#2C3A92"/>
</linearGradient>
<linearGradient id="paint6_linear_338_667" x1="112.952" y1="0.201172" x2="112.952" y2="18.6846" gradientUnits="userSpaceOnUse">
<stop stop-color="#4EA5E0"/>
<stop offset="0.640625" stop-color="#4380C4"/>
<stop offset="1" stop-color="#2C3A92"/>
</linearGradient>
<linearGradient id="paint7_linear_338_667" x1="98.7115" y1="0.392578" x2="98.7115" y2="18.4092" gradientUnits="userSpaceOnUse">
<stop stop-color="#4EA5E0"/>
<stop offset="0.640625" stop-color="#4380C4"/>
<stop offset="1" stop-color="#2C3A92"/>
</linearGradient>
<linearGradient id="paint8_linear_338_667" x1="128.761" y1="0.150513" x2="128.761" y2="18.9268" gradientUnits="userSpaceOnUse">
<stop stop-color="#4EA5E0"/>
<stop offset="0.640625" stop-color="#4380C4"/>
<stop offset="1" stop-color="#2C3A92"/>
</linearGradient>
</defs>
</svg>
