<svg
  width="80"
  height="81"
  viewBox="0 0 80 81"
  fill="none"
  xmlns="http://www.w3.org/2000/svg"
>
  <path
    d="M7.52693 79.0552C7.11946 78.1695 6.74321 77.3536 6.24555 76.2743C5.66832 77.5185 5.17433 78.5473 4.71377 79.5909C4.47611 80.1294 4.26725 80.6436 3.53978 80.6255C2.80156 80.6071 2.62781 80.0658 2.44301 79.5146C1.67894 77.2358 0.924125 74.9538 0.139099 72.6822C-0.100353 71.9893 -0.090797 71.373 0.654516 71.0922C1.46146 70.7882 1.88299 71.2768 2.12314 72.0164C2.63597 73.5956 3.17569 75.1662 3.75822 76.9005C4.47775 75.9207 4.70644 74.9048 5.16408 74.0049C5.41962 73.5025 5.58578 72.885 6.29946 72.8929C7.05736 72.9014 7.23686 73.5372 7.46327 74.0953C7.83623 75.0145 8.20671 75.9348 8.68012 77.1068C9.29645 75.2637 9.85132 73.6704 10.3573 72.0617C10.5914 71.3177 10.9767 70.8103 11.7948 71.0983C12.6273 71.3913 12.5525 72.0728 12.3148 72.7713C11.6047 74.8579 10.9267 76.9557 10.1949 79.0347C9.96536 79.6867 9.93671 80.5823 8.93023 80.611C7.93306 80.6395 7.87232 79.7542 7.52693 79.0552Z"
    fill="url(#paint0_linear_338_590)"
  />
  <path
    d="M12.8472 76.2719C12.8663 72.4182 15.7002 70.056 18.9644 71.0787C21.0072 71.7187 22.3566 73.7541 22.2595 76.049C22.1557 78.5002 20.7942 80.1959 18.5022 80.7286C16.513 81.191 14.4533 80.2588 13.4974 78.4564C13.1494 77.8001 12.9877 77.0834 12.8472 76.2719ZM18.1569 72.9384C17.1742 72.6037 16.3418 72.9496 15.7416 73.6783C14.9047 74.6945 14.7175 75.8722 15.1995 77.1484C15.5663 78.1195 16.2514 78.7043 17.2332 78.8565C18.2062 79.0072 18.9848 78.5275 19.5621 77.7704C20.7655 76.1923 20.154 73.9133 18.1569 72.9384Z"
    fill="url(#paint1_linear_338_590)"
  />
  <path
    d="M30.4262 72.0507C31.3482 73.3881 31.3809 74.658 30.4116 75.9005C30.1532 76.2318 30.0997 76.4942 30.3755 76.8707C30.9922 77.7126 30.6858 78.9012 31.4195 79.7362C31.6194 79.9638 31.4117 80.35 31.1155 80.4878C30.5992 80.7279 30.0636 80.7132 29.6191 80.3168C29.1173 79.8693 28.9245 79.2535 28.8946 78.6087C28.8672 78.0157 28.706 77.5603 28.0879 77.3813C27.3064 77.1549 26.5137 77.0969 25.7388 77.3658C25.4975 77.4496 25.5477 77.7673 25.5426 77.9978C25.5307 78.532 25.5529 79.0684 25.5122 79.6001C25.4668 80.1909 25.2205 80.6273 24.5249 80.6145C23.8155 80.6015 23.4823 80.2013 23.4753 79.54C23.4547 77.6027 23.458 75.6651 23.4575 73.7276C23.4569 71.051 23.459 71.0509 26.15 71.0476C26.7844 71.0469 27.4196 71.0674 28.0531 71.0422C28.9791 71.0055 29.7563 71.2998 30.4262 72.0507ZM25.5341 74.412C25.4111 75.3021 25.8368 75.6463 26.6818 75.546C27.431 75.4571 28.3321 75.8791 28.8409 74.9512C29.1542 74.38 29.2128 73.7571 28.7274 73.2811C27.9585 72.5272 26.9686 72.8203 26.0713 72.9312C25.2838 73.0286 25.6157 73.752 25.5341 74.412Z"
    fill="url(#paint2_linear_338_590)"
  />
  <path
    d="M34.5762 79.851C34.3599 80.5211 33.9212 80.6878 33.3669 80.5786C32.7848 80.4638 32.688 80.0002 32.6877 79.5036C32.6863 77.0625 32.6866 74.6214 32.6929 72.1803C32.6945 71.517 32.9839 71.0659 33.6998 71.0791C34.4369 71.0926 34.6395 71.5936 34.6363 72.2398C34.632 73.1047 34.6353 73.9697 34.6353 74.9533C35.2305 74.7728 35.5307 74.3696 35.8703 74.0404C36.7102 73.226 37.5271 72.3877 38.3672 71.5735C38.834 71.1211 39.3831 70.6078 39.992 71.253C40.6112 71.9091 40.1277 72.4792 39.6183 72.9672C39.0391 73.5221 38.4681 74.0871 37.865 74.6151C37.3921 75.0289 37.3693 75.4011 37.7602 75.8969C38.5257 76.8678 39.2472 77.8736 39.9856 78.8659C40.392 79.412 40.5491 79.9999 39.9092 80.4384C39.3281 80.8366 38.7634 80.6509 38.3336 80.092C37.502 79.0105 36.6691 77.9302 35.818 76.825C34.9842 77.2283 34.561 77.775 34.6279 78.6628C34.6554 79.027 34.6079 79.3969 34.5762 79.851Z"
    fill="url(#paint3_linear_338_590)"
  />
  <path
    d="M44.6388 74.8885C45.2348 75.0372 45.7595 75.1464 46.265 75.3137C47.4237 75.6972 47.9679 76.5837 48.0289 77.7409C48.0884 78.8691 47.5661 79.7272 46.5727 80.2922C45.106 81.1266 42.7137 80.9603 41.4483 79.9197C40.9509 79.5106 40.5528 79.0464 41.0364 78.3898C41.4847 77.781 42.017 77.9585 42.5275 78.3195C43.3725 78.9171 44.2835 79.121 45.2739 78.7662C45.6638 78.6264 46.0075 78.3716 46.0345 77.9195C46.0626 77.4491 45.7067 77.2056 45.3288 77.0435C44.7757 76.8063 44.1937 76.6711 43.5946 76.5799C42.032 76.3419 41.0626 75.3554 40.9933 73.9824C40.9164 72.459 41.783 71.3908 43.404 71.0045C44.7467 70.6846 45.9915 70.9314 47.1412 71.6688C47.6709 72.0085 47.9825 72.4888 47.6436 73.1092C47.2768 73.7806 46.7399 73.6264 46.1865 73.3143C45.5701 72.9666 44.9205 72.709 44.1861 72.7813C43.6256 72.8364 43.0705 72.9783 42.9465 73.597C42.8097 74.2796 43.3606 74.5034 43.8861 74.681C44.107 74.7556 44.3344 74.8111 44.6388 74.8885Z"
    fill="url(#paint4_linear_338_590)"
  />
  <path
    d="M77.9274 71.0493C78.3934 71.0542 78.7626 71.0419 79.1291 71.0679C79.6756 71.1068 80 71.4 79.999 71.9661C79.998 72.4917 79.6884 72.7719 79.1851 72.7981C78.3177 72.8431 77.4433 72.9259 76.5819 72.8607C75.8132 72.8024 75.5819 73.0535 75.58 73.7999C75.5782 74.5357 75.722 74.957 76.576 74.8706C77.1386 74.8137 77.7127 74.8562 78.2811 74.8736C78.862 74.8913 79.3767 75.0491 79.393 75.7534C79.41 76.4877 78.8927 76.6095 78.3025 76.6066C77.834 76.6042 77.3656 76.6035 76.8971 76.6056C75.7113 76.6107 75.2147 77.3585 75.6208 78.4945C75.7552 78.8708 76.0457 78.873 76.3487 78.8752C77.2186 78.8816 78.0888 78.8706 78.9585 78.8872C79.5642 78.8988 80.0253 79.1318 79.9988 79.828C79.9737 80.4886 79.5042 80.6259 78.9466 80.6246C77.5747 80.6213 76.202 80.5957 74.8311 80.6325C73.8916 80.6577 73.5512 80.1433 73.5745 79.3301C73.6424 76.9568 73.4415 74.5827 73.635 72.2088C73.6993 71.4208 74.0314 71.0456 74.818 71.0513C75.8217 71.0585 76.8256 71.0507 77.9274 71.0493Z"
    fill="url(#paint5_linear_338_590)"
  />
  <path
    d="M60.2637 78.6107C59.8018 78.6122 59.4328 78.6367 59.0677 78.6092C58.5145 78.5676 58.1867 78.8076 58.0174 79.3237C57.9344 79.5764 57.8302 79.8269 57.7001 80.0583C57.4373 80.5257 57.0834 80.8914 56.4912 80.6616C55.8753 80.4227 55.8739 79.8797 56.0705 79.3965C57.1272 76.7994 58.1852 74.2017 59.3164 71.6366C59.7246 70.711 60.7346 70.7162 61.1495 71.6521C62.2986 74.2446 63.3689 76.8723 64.4485 79.4951C64.6577 80.0035 64.4392 80.4213 63.9414 80.6427C63.4705 80.8522 63.1009 80.6564 62.8153 80.2657C62.7566 80.1853 62.69 80.099 62.6676 80.0057C62.3673 78.7586 61.5348 78.4013 60.2637 78.6107ZM60.1727 76.7198C60.4589 76.6847 60.7775 76.81 61.0635 76.5107C60.923 75.8208 60.6456 75.1677 60.2513 74.5284C59.726 75.1671 59.4386 75.8404 59.3484 76.5971C59.551 76.7587 59.7935 76.7032 60.1727 76.7198Z"
    fill="url(#paint6_linear_338_590)"
  />
  <path
    d="M56.0939 73.9573C55.9357 76.2794 54.7855 77.3706 52.5692 77.3917C51.092 77.4057 51.1157 77.4063 51.082 78.8646C51.0656 79.5715 51.3923 80.6035 50.168 80.5862C49.009 80.5698 49.2249 79.5709 49.2162 78.8424C49.1911 76.7366 49.1923 74.6301 49.2157 72.5243C49.229 71.3252 49.5204 71.0662 50.7153 71.0525C51.3167 71.0456 51.9182 71.0481 52.5197 71.0485C54.742 71.0501 55.5609 71.6986 56.0939 73.9573ZM53.438 72.9916C53.065 72.8136 52.665 72.7584 52.2694 72.8388C51.8983 72.9142 51.3327 72.6616 51.1898 73.1192C50.9839 73.7784 50.9367 74.5384 51.1879 75.1787C51.4112 75.7476 52.0728 75.4248 52.5399 75.482C53.1838 75.5608 53.712 75.3992 54.0128 74.7375C54.3304 74.039 54.0983 73.5197 53.438 72.9916Z"
    fill="url(#paint7_linear_338_590)"
  />
  <path
    d="M72.4492 79.0614C72.6923 79.7738 72.3687 80.147 71.8364 80.414C69.7348 81.4684 66.6392 80.5754 65.4723 78.5779C64.1692 76.3473 64.832 73.0862 66.8948 71.7639C68.4025 70.7975 70.0268 70.6742 71.6875 71.3253C72.2387 71.5414 72.7179 71.9141 72.4801 72.623C72.2582 73.2842 71.6943 73.2516 71.1421 73.1682C70.6816 73.0986 70.2247 72.9648 69.7632 72.9491C68.5911 72.9092 67.6317 73.3633 67.185 74.4806C66.719 75.6461 66.6721 76.8888 67.5156 77.9036C68.3021 78.8498 69.3951 79.1245 70.605 78.7491C70.7646 78.6996 70.9222 78.6437 71.082 78.5951C71.6111 78.4342 72.0742 78.4983 72.4492 79.0614Z"
    fill="url(#paint8_linear_338_590)"
  />
  <path
    d="M70.4154 48.9274C73.2689 47.6633 73.9131 45.6633 72.3816 42.8268C70.9689 40.2103 68.8093 38.2563 66.5226 36.4315C65.9476 35.9726 65.3276 35.57 64.7557 35.1075C63.794 34.3296 63.6238 33.3319 64.2709 32.4665C64.8913 31.6369 65.6794 31.5348 66.737 32.2515C70.8052 35.0087 74.6735 37.9984 77.1926 42.3437C78.7987 45.114 79.3022 48.0078 77.3942 50.8736C76.0264 52.928 73.9238 53.9675 71.6531 54.6864C67.9925 55.8452 64.2092 55.9555 60.4245 55.7987C52.6864 55.4781 45.1951 53.7582 37.8314 51.4854C30.0414 49.081 22.5213 45.9978 15.5154 41.7886C11.4639 39.3546 7.57718 36.6601 4.5918 32.9062C2.99258 30.8954 1.78618 28.7259 1.72171 26.0047C1.64214 22.6458 3.96477 20.0545 6.67941 18.8612C11.0287 16.9493 15.6166 16.8046 20.2609 17.1485C21.4928 17.2398 22.7358 17.1638 23.9592 17.3946C24.0896 17.4192 24.2271 17.4036 24.3596 17.4204C25.7982 17.6026 26.5974 18.3072 26.5227 19.3237C26.4472 20.3498 25.5947 20.8962 24.1214 20.886C19.9945 20.8575 15.8974 21.1016 11.9244 22.3458C10.6725 22.7378 9.47872 23.2659 8.50933 24.1902C7.44133 25.2086 7.29622 25.8787 7.89468 27.2353C8.27508 28.0975 8.82201 28.858 9.45078 29.5613C12.6468 33.1361 16.6375 35.6521 20.7628 37.9612C27.3329 41.6388 34.3196 44.3609 41.5332 46.4299C47.3099 48.0868 53.1796 49.3924 59.2199 49.7998C62.9842 50.0537 66.6989 50.0932 70.4154 48.9274Z"
    fill="url(#paint9_linear_338_590)"
  />
  <path
    d="M61.0042 41.465C60.9819 42.9839 60.9466 44.4232 60.9658 45.8619C60.974 46.476 60.7463 46.7094 60.1421 46.6757C59.275 46.6272 58.4096 46.6294 57.5413 46.5161C56.7911 46.4181 56.6242 46.0639 56.6271 45.3849C56.6487 40.2995 56.6065 35.2135 56.6751 30.1289C56.6909 28.9572 56.2788 28.3892 55.2252 27.9735C53.4853 27.287 51.8042 26.4516 50.0961 25.684C49.9809 25.6322 49.8467 25.623 49.6698 25.5821C49.3829 26.2074 49.4822 26.845 49.4806 27.4565C49.4666 32.8804 49.4722 38.3042 49.4682 43.7281C49.4671 45.1238 49.3742 45.1947 48.0426 44.8865C47.3911 44.7357 46.7455 44.5519 46.0878 44.4375C45.2854 44.298 44.9842 43.8768 45.0034 43.0537C45.0595 40.646 45.0686 38.2365 45.0963 35.8287C45.148 31.3179 44.9994 26.8051 44.9634 22.2929C44.9455 20.0576 44.9915 17.8217 45.0115 15.586C45.0156 15.1285 44.867 14.7337 44.5625 14.395C42.9746 12.6293 41.3879 10.8625 39.796 9.10049C39.7122 9.00768 39.5844 8.95456 39.4446 8.86126C38.6531 9.37058 38.1966 10.1758 37.5822 10.819C36.5203 11.9308 35.5448 13.1246 34.5055 14.2587C34.0247 14.7833 33.8208 15.345 33.8224 16.0677C33.8388 23.7347 33.8266 31.4017 33.8224 39.0688C33.8221 39.464 33.8223 39.8593 33.8223 40.4705C32.3316 40.0242 31.0388 39.5585 29.831 38.8777C29.4727 38.6757 29.5013 38.2468 29.5021 37.8751C29.5043 36.8372 29.4941 35.799 29.5164 34.7616C29.5305 34.1094 29.313 33.7675 28.5946 33.7753C26.52 33.7978 24.444 33.8171 22.3708 33.7585C21.6984 33.7395 21.5663 34.2029 21.2821 34.6891C19.8465 34.0232 18.5549 33.1922 17.3697 32.2449C16.7741 31.7689 17.0195 30.9295 17.2671 30.2592C17.5351 29.5335 18.1438 29.2883 18.8686 29.2873C21.0773 29.2844 23.286 29.2887 25.4947 29.29C26.3313 29.2904 27.168 29.2937 28.0046 29.2901C29.5128 29.2836 29.5173 29.2819 29.5155 27.7227C29.5105 23.5042 29.5361 19.2851 29.4731 15.0674C29.4536 13.7594 29.905 12.7833 30.7699 11.8381C33.0948 9.29744 35.3462 6.68948 37.6265 4.10793C37.7372 3.98251 37.8412 3.85095 37.954 3.72748C39.1217 2.4497 39.8797 2.4449 41.013 3.72545C43.2526 6.256 45.4077 8.86776 47.7526 11.2962C49.0717 12.6623 49.6716 14.0929 49.4953 15.9611C49.3857 17.1227 49.5085 18.3043 49.4604 19.4742C49.4315 20.1769 49.6771 20.5499 50.3327 20.8434C53.3854 22.2101 56.4023 23.6572 59.4558 25.0223C60.5495 25.5112 60.9769 26.2299 60.9687 27.4384C60.9371 32.0871 60.9912 36.7363 61.0042 41.465Z"
    fill="url(#paint10_linear_338_590)"
  />
  <path
    d="M50.6272 63.8996C40.2895 63.9004 30.0522 63.9016 19.8148 63.9014C17.9111 63.9014 17.0971 63.1578 17.0858 61.2687C17.058 56.6164 17.0736 51.9638 17.0745 47.3113C17.0745 47.0476 17.0439 46.7712 17.313 46.4771C18.1938 46.5421 18.8501 47.2646 19.6834 47.5244C21.1795 47.9908 21.6939 48.9013 21.5988 50.5009C21.4441 53.1025 21.5841 55.7204 21.5353 58.3301C21.5193 59.1845 21.8008 59.5981 22.6561 59.5694C24.6934 59.5009 26.7295 59.3816 28.768 59.5699C29.4186 59.63 29.5211 59.1822 29.5169 58.651C29.502 56.7767 29.4941 54.9023 29.4987 53.028C29.5013 51.9774 29.6432 51.886 30.602 52.2563C31.0385 52.4249 31.4684 52.6105 31.905 52.7788C34.1391 53.6399 33.7956 53.0436 33.8245 55.5744C33.836 56.5784 33.8496 57.5833 33.8184 58.5864C33.7977 59.2533 34.0327 59.5942 34.7338 59.5826C36.6014 59.5518 38.4694 59.5238 40.3373 59.5233C41.5716 59.5229 42.8068 59.5529 44.04 59.6059C44.8307 59.6398 45.1605 59.3199 45.0374 58.5307C45.0067 58.3341 45.0279 58.1297 45.0209 57.929C44.9937 57.1588 45.1901 56.7035 46.1216 56.9547C46.9249 57.1713 47.7583 57.2781 48.5803 57.423C49.2057 57.5334 49.5357 57.8724 49.4612 58.5281C49.3627 59.3963 49.8095 59.6448 50.593 59.5907C53.6324 59.3808 56.6782 59.5054 59.7199 59.4284C60.654 59.4048 61.1339 59.6458 60.9655 60.6675C60.9118 60.9935 60.966 61.3358 60.9494 61.6696C60.8791 63.0794 60.0683 63.8853 58.6566 63.894C56.0137 63.9103 53.3706 63.8992 50.6272 63.8996Z"
    fill="url(#paint11_linear_338_590)"
  />
  <path
    d="M21.3906 10.845C20.636 8.26508 19.1835 6.46922 16.4991 5.87618C16.3925 5.85263 16.3112 5.71414 16.1265 5.54555C17.2263 4.68839 18.7088 4.69912 19.6441 3.70061C20.5835 2.69778 20.8122 1.3316 21.5003 0C22.2466 1.27981 22.3987 2.67536 23.3162 3.66025C24.2501 4.66274 25.6824 4.78388 26.8093 5.43681C26.5804 6.07398 26.0748 6.11109 25.6985 6.20889C23.6566 6.7396 22.581 8.14647 22.0079 10.0697C21.9149 10.3816 21.9689 10.8479 21.3906 10.845Z"
    fill="url(#paint12_linear_338_590)"
  />
  <path
    d="M5.81295 52.9169C5.28649 50.9524 4.13919 49.6984 2.18534 49.2335C2.07369 49.207 1.9859 49.08 1.81348 48.9401C2.60149 48.1751 3.76478 48.2242 4.49597 47.4624C5.23717 46.69 5.38984 45.6265 5.98924 44.6842C6.71313 45.5372 6.73603 46.6693 7.45311 47.4293C8.18578 48.2059 9.35566 48.1801 10.1158 48.8384C10.0064 49.31 9.64171 49.3203 9.38283 49.39C7.89224 49.7914 6.98948 50.7413 6.52639 52.199C6.43511 52.4863 6.5111 53.0998 5.81295 52.9169Z"
    fill="url(#paint13_linear_338_590)"
  />
  <path
    d="M71.7422 23.2887C72.0954 24.1221 72.3897 24.8746 73.1206 25.4074C73.7931 25.8976 74.7327 25.8394 75.4847 26.7113C73.1513 27.1271 71.9355 28.6267 71.1921 30.7505C70.5382 28.5505 69.2545 27.1568 66.9106 26.7201C67.8413 25.7798 69.0193 25.8303 69.7453 25.0409C70.4628 24.2607 70.5586 23.173 71.1524 22.3512C71.5786 22.5518 71.5657 22.9331 71.7422 23.2887Z"
    fill="url(#paint14_linear_338_590)"
  />
  <defs>
    <linearGradient
      id="paint0_linear_338_590"
      x1="6.23721"
      y1="71.0005"
      x2="6.23721"
      y2="80.626"
      gradientUnits="userSpaceOnUse"
    >
      <stop stopColor="#4EA5E0" />
      <stop offset="0.640625" stopColor="#4380C4" />
      <stop offset="1" stopColor="#2C3A92" />
    </linearGradient>
    <linearGradient
      id="paint1_linear_338_590"
      x1="17.5558"
      y1="70.84"
      x2="17.5558"
      y2="80.8461"
      gradientUnits="userSpaceOnUse"
    >
      <stop stopColor="#4EA5E0" />
      <stop offset="0.640625" stopColor="#4380C4" />
      <stop offset="1" stopColor="#2C3A92" />
    </linearGradient>
    <linearGradient
      id="paint2_linear_338_590"
      x1="27.478"
      y1="71.0392"
      x2="27.478"
      y2="80.6461"
      gradientUnits="userSpaceOnUse"
    >
      <stop stopColor="#4EA5E0" />
      <stop offset="0.640625" stopColor="#4380C4" />
      <stop offset="1" stopColor="#2C3A92" />
    </linearGradient>
    <linearGradient
      id="paint3_linear_338_590"
      x1="36.5137"
      y1="70.9487"
      x2="36.5137"
      y2="80.6513"
      gradientUnits="userSpaceOnUse"
    >
      <stop stopColor="#4EA5E0" />
      <stop offset="0.640625" stopColor="#4380C4" />
      <stop offset="1" stopColor="#2C3A92" />
    </linearGradient>
    <linearGradient
      id="paint4_linear_338_590"
      x1="44.4254"
      y1="70.8673"
      x2="44.4254"
      y2="80.8236"
      gradientUnits="userSpaceOnUse"
    >
      <stop stopColor="#4EA5E0" />
      <stop offset="0.640625" stopColor="#4380C4" />
      <stop offset="1" stopColor="#2C3A92" />
    </linearGradient>
    <linearGradient
      id="paint5_linear_338_590"
      x1="76.7741"
      y1="71.0493"
      x2="76.7741"
      y2="80.6334"
      gradientUnits="userSpaceOnUse"
    >
      <stop stopColor="#4EA5E0" />
      <stop offset="0.640625" stopColor="#4380C4" />
      <stop offset="1" stopColor="#2C3A92" />
    </linearGradient>
    <linearGradient
      id="paint6_linear_338_590"
      x1="60.2411"
      y1="70.9463"
      x2="60.2411"
      y2="80.7322"
      gradientUnits="userSpaceOnUse"
    >
      <stop stopColor="#4EA5E0" />
      <stop offset="0.640625" stopColor="#4380C4" />
      <stop offset="1" stopColor="#2C3A92" />
    </linearGradient>
    <linearGradient
      id="paint7_linear_338_590"
      x1="52.6458"
      y1="71.0477"
      x2="52.6458"
      y2="80.5864"
      gradientUnits="userSpaceOnUse"
    >
      <stop stopColor="#4EA5E0" />
      <stop offset="0.640625" stopColor="#4380C4" />
      <stop offset="1" stopColor="#2C3A92" />
    </linearGradient>
    <linearGradient
      id="paint8_linear_338_590"
      x1="68.6724"
      y1="70.9197"
      x2="68.6724"
      y2="80.8606"
      gradientUnits="userSpaceOnUse"
    >
      <stop stopColor="#4EA5E0" />
      <stop offset="0.640625" stopColor="#4380C4" />
      <stop offset="1" stopColor="#2C3A92" />
    </linearGradient>
    <linearGradient
      id="paint9_linear_338_590"
      x1="40.172"
      y1="17.0018"
      x2="40.172"
      y2="55.8551"
      gradientUnits="userSpaceOnUse"
    >
      <stop stopColor="#4EA5E0" />
      <stop offset="0.640625" stopColor="#4380C4" />
      <stop offset="1" stopColor="#2C3A92" />
    </linearGradient>
    <linearGradient
      id="paint10_linear_338_590"
      x1="39.0021"
      y1="2.76709"
      x2="39.0021"
      y2="46.6789"
      gradientUnits="userSpaceOnUse"
    >
      <stop stopColor="#4EA5E0" />
      <stop offset="0.640625" stopColor="#4380C4" />
      <stop offset="1" stopColor="#2C3A92" />
    </linearGradient>
    <linearGradient
      id="paint11_linear_338_590"
      x1="39.034"
      y1="46.4771"
      x2="39.034"
      y2="63.9029"
      gradientUnits="userSpaceOnUse"
    >
      <stop stopColor="#4EA5E0" />
      <stop offset="0.640625" stopColor="#4380C4" />
      <stop offset="1" stopColor="#2C3A92" />
    </linearGradient>
    <linearGradient
      id="paint12_linear_338_590"
      x1="21.4679"
      y1="0"
      x2="21.4679"
      y2="10.845"
      gradientUnits="userSpaceOnUse"
    >
      <stop stopColor="#4EA5E0" />
      <stop offset="0.640625" stopColor="#4380C4" />
      <stop offset="1" stopColor="#2C3A92" />
    </linearGradient>
    <linearGradient
      id="paint13_linear_338_590"
      x1="5.96466"
      y1="44.6842"
      x2="5.96466"
      y2="52.9503"
      gradientUnits="userSpaceOnUse"
    >
      <stop stopColor="#4EA5E0" />
      <stop offset="0.640625" stopColor="#4380C4" />
      <stop offset="1" stopColor="#2C3A92" />
    </linearGradient>
    <linearGradient
      id="paint14_linear_338_590"
      x1="71.1977"
      y1="22.3512"
      x2="71.1977"
      y2="30.7505"
      gradientUnits="userSpaceOnUse"
    >
      <stop stopColor="#4EA5E0" />
      <stop offset="0.640625" stopColor="#4380C4" />
      <stop offset="1" stopColor="#2C3A92" />
    </linearGradient>
  </defs>
</svg>
