<svg width="19" height="18" viewBox="0 0 19 18" fill="none" xmlns="http://www.w3.org/2000/svg">
<path d="M18.4561 15.803C18.709 16.0444 18.851 16.3719 18.851 16.7134C18.851 17.0548 18.709 17.3823 18.4561 17.6237C18.2032 17.8652 17.8602 18.0008 17.5025 18.0008C17.1449 18.0008 16.8019 17.8652 16.549 17.6237L9.42664 10.8216L2.30204 17.6216C2.04915 17.863 1.70615 17.9987 1.3485 17.9987C0.990858 17.9987 0.647861 17.863 0.394968 17.6216C0.142074 17.3801 3.76841e-09 17.0527 0 16.7112C-3.76841e-09 16.3698 0.142074 16.0423 0.394968 15.8008L7.51956 9.00083L0.397211 2.19868C0.144317 1.95723 0.00224366 1.62976 0.00224367 1.2883C0.00224367 0.94684 0.144317 0.619367 0.397211 0.377919C0.650104 0.136471 0.993102 0.000826719 1.35075 0.000826715C1.70839 0.000826712 2.05139 0.136471 2.30428 0.377919L9.42664 7.18007L16.5512 0.376848C16.8041 0.1354 17.1471 -0.000244146 17.5048 -0.000244141C17.8624 -0.000244135 18.2054 0.1354 18.4583 0.376848C18.7112 0.618295 18.8533 0.945769 18.8533 1.28723C18.8533 1.62869 18.7112 1.95616 18.4583 2.19761L11.3337 9.00083L18.4561 15.803Z" fill="black"/>
</svg>
